<svg xmlns="http://www.w3.org/2000/svg" xmlns:xlink="http://www.w3.org/1999/xlink" width="266" height="170" viewBox="0 0 266 170">
  <defs>
    <filter id="Rectangle_1307" x="0" y="0" width="266" height="170" filterUnits="userSpaceOnUse">
      <feOffset dy="3" input="SourceAlpha"/>
      <feGaussianBlur stdDeviation="12.5" result="blur"/>
      <feFlood flood-opacity="0.161"/>
      <feComposite operator="in" in2="blur"/>
      <feComposite in="SourceGraphic"/>
    </filter>
    <radialGradient id="radial-gradient" cx="0.065" cy="0.978" r="1.27" gradientTransform="translate(0)" gradientUnits="objectBoundingBox">
      <stop offset="0.09" stop-color="#fa8f21"/>
      <stop offset="0.78" stop-color="#d82d7e"/>
    </radialGradient>
    <radialGradient id="radial-gradient-2" cx="0.693" cy="0.946" r="1.117" gradientTransform="translate(0)" gradientUnits="objectBoundingBox">
      <stop offset="0.64" stop-color="#8c3aaa" stop-opacity="0"/>
      <stop offset="1" stop-color="#8c3aaa"/>
    </radialGradient>
  </defs>
  <g id="instagram" transform="translate(3965.5 -6248.5)">
    <g transform="matrix(1, 0, 0, 1, -3965.5, 6248.5)" filter="url(#Rectangle_1307)">
      <rect id="Rectangle_1307-2" data-name="Rectangle 1307" width="191" height="95" rx="5" transform="translate(37.5 34.5)" fill="#0d0d0d"/>
    </g>
    <g id="instagram-2-1" transform="translate(-3859 6304)">
      <path id="Path_2347" data-name="Path 2347" d="M13.678,53.748a18.16,18.16,0,0,1-6.109-1.132,10.221,10.221,0,0,1-3.783-2.461,10.143,10.143,0,0,1-2.461-3.782A18.16,18.16,0,0,1,.192,40.265C.032,36.8,0,35.757,0,26.972s.035-9.824.191-13.294A18.262,18.262,0,0,1,1.323,7.568,10.261,10.261,0,0,1,3.783,3.783,10.156,10.156,0,0,1,7.567,1.323,18.16,18.16,0,0,1,13.676.191C17.145.032,18.187,0,26.969,0s9.824.035,13.294.191a18.262,18.262,0,0,1,6.109,1.132,10.182,10.182,0,0,1,3.783,2.461,10.189,10.189,0,0,1,2.461,3.783,18.16,18.16,0,0,1,1.132,6.109c.159,3.471.191,4.509.191,13.294s-.032,9.824-.191,13.294a18.243,18.243,0,0,1-1.132,6.109,10.893,10.893,0,0,1-6.244,6.242,18.16,18.16,0,0,1-6.109,1.132c-3.467.159-4.509.191-13.294.191s-9.824-.03-13.291-.191" fill="url(#radial-gradient)"/>
      <path id="Path_2348" data-name="Path 2348" d="M13.678,53.748a18.16,18.16,0,0,1-6.109-1.132,10.221,10.221,0,0,1-3.783-2.461,10.143,10.143,0,0,1-2.461-3.782A18.16,18.16,0,0,1,.192,40.265C.032,36.8,0,35.757,0,26.972s.035-9.824.191-13.294A18.262,18.262,0,0,1,1.323,7.568,10.261,10.261,0,0,1,3.783,3.783,10.156,10.156,0,0,1,7.567,1.323,18.16,18.16,0,0,1,13.676.191C17.145.032,18.187,0,26.969,0s9.824.035,13.294.191a18.262,18.262,0,0,1,6.109,1.132,10.182,10.182,0,0,1,3.783,2.461,10.189,10.189,0,0,1,2.461,3.783,18.16,18.16,0,0,1,1.132,6.109c.159,3.471.191,4.509.191,13.294s-.032,9.824-.191,13.294a18.243,18.243,0,0,1-1.132,6.109,10.893,10.893,0,0,1-6.244,6.242,18.16,18.16,0,0,1-6.109,1.132c-3.467.159-4.509.191-13.294.191s-9.824-.03-13.291-.191" fill="url(#radial-gradient-2)"/>
      <path id="Path_2349" data-name="Path 2349" d="M449.21,459.559a6.679,6.679,0,1,1,6.678,6.68,6.679,6.679,0,0,1-6.678-6.68m-3.611,0a10.29,10.29,0,1,0,10.29-10.29,10.289,10.289,0,0,0-10.29,10.29m18.582-10.7a2.4,2.4,0,1,0,2.406-2.4h0a2.406,2.406,0,0,0-2.4,2.4M447.793,475.87a11.075,11.075,0,0,1-3.721-.689,6.635,6.635,0,0,1-3.8-3.8,11.065,11.065,0,0,1-.689-3.721c-.1-2.112-.117-2.747-.117-8.1s.021-5.984.117-8.1a11.148,11.148,0,0,1,.689-3.721,6.631,6.631,0,0,1,3.8-3.8,11.065,11.065,0,0,1,3.721-.689c2.112-.1,2.747-.117,8.1-.117s5.984.021,8.1.117a11.149,11.149,0,0,1,3.721.689,6.631,6.631,0,0,1,3.8,3.8,11.063,11.063,0,0,1,.689,3.721c.1,2.114.117,2.747.117,8.1s-.019,5.984-.117,8.1a11.115,11.115,0,0,1-.689,3.721,6.635,6.635,0,0,1-3.8,3.8,11.066,11.066,0,0,1-3.721.689c-2.112.1-2.747.117-8.1.117s-5.984-.019-8.1-.117m-.166-36.229a14.693,14.693,0,0,0-4.864.931,10.245,10.245,0,0,0-5.861,5.861,14.7,14.7,0,0,0-.931,4.864c-.1,2.137-.121,2.82-.121,8.261s.023,6.125.121,8.262a14.7,14.7,0,0,0,.931,4.864,10.245,10.245,0,0,0,5.861,5.861,14.706,14.706,0,0,0,4.864.931c2.138.1,2.82.121,8.262.121s6.125-.023,8.261-.121a14.7,14.7,0,0,0,4.864-.931,10.245,10.245,0,0,0,5.861-5.861,14.657,14.657,0,0,0,.931-4.864c.1-2.138.12-2.82.12-8.262s-.023-6.125-.12-8.261a14.693,14.693,0,0,0-.931-4.864,10.249,10.249,0,0,0-5.859-5.861,14.673,14.673,0,0,0-4.864-.931c-2.137-.1-2.82-.121-8.261-.121s-6.125.023-8.263.121" transform="translate(-428.863 -432.474)" fill="#fff"/>
    </g>
  </g>
</svg>
