<svg xmlns="http://www.w3.org/2000/svg" width="78.938" height="68.238" viewBox="0 0 78.938 68.238">
  <g id="Group_102" data-name="Group 102" transform="translate(78.938) rotate(90)">
    <g id="Group_93" data-name="Group 93">
      <g id="Group_90" data-name="Group 90" transform="translate(0 19.003)">
        <path id="Path_213" data-name="Path 213" d="M1.727,0A1.728,1.728,0,1,1,0,1.727,1.727,1.727,0,0,1,1.727,0Z" fill="#d5043e"/>
        <path id="Path_214" data-name="Path 214" d="M1.728,0A1.728,1.728,0,1,1,0,1.727,1.727,1.727,0,0,1,1.728,0Z" transform="translate(10.797)" fill="#d5043e"/>
        <path id="Path_215" data-name="Path 215" d="M1.727,0A1.728,1.728,0,1,1,0,1.727,1.728,1.728,0,0,1,1.727,0Z" transform="translate(21.595)" fill="#d5043e"/>
        <path id="Path_216" data-name="Path 216" d="M1.727,0A1.728,1.728,0,1,1,0,1.727,1.727,1.727,0,0,1,1.727,0Z" transform="translate(32.391)" fill="#d5043e"/>
        <path id="Path_217" data-name="Path 217" d="M1.728,0A1.728,1.728,0,1,1,0,1.727,1.727,1.727,0,0,1,1.728,0Z" transform="translate(43.188)" fill="#d5043e"/>
        <path id="Path_218" data-name="Path 218" d="M1.727,0A1.728,1.728,0,1,1,0,1.727,1.727,1.727,0,0,1,1.727,0Z" transform="translate(53.986)" fill="#d5043e"/>
        <path id="Path_219" data-name="Path 219" d="M1.728,0A1.728,1.728,0,1,1,0,1.727,1.727,1.727,0,0,1,1.728,0Z" transform="translate(64.783)" fill="#d5043e"/>
      </g>
      <g id="Group_91" data-name="Group 91" transform="translate(0 9.502)">
        <path id="Path_220" data-name="Path 220" d="M1.727,0A1.728,1.728,0,1,1,0,1.727,1.727,1.727,0,0,1,1.727,0Z" transform="translate(0 0)" fill="#d5043e"/>
        <path id="Path_221" data-name="Path 221" d="M1.728,0A1.728,1.728,0,1,1,0,1.727,1.727,1.727,0,0,1,1.728,0Z" transform="translate(10.797 0)" fill="#d5043e"/>
        <path id="Path_222" data-name="Path 222" d="M1.727,0A1.728,1.728,0,1,1,0,1.727,1.728,1.728,0,0,1,1.727,0Z" transform="translate(21.595 0)" fill="#d5043e"/>
        <path id="Path_223" data-name="Path 223" d="M1.727,0A1.728,1.728,0,1,1,0,1.727,1.727,1.727,0,0,1,1.727,0Z" transform="translate(32.391 0)" fill="#d5043e"/>
        <path id="Path_224" data-name="Path 224" d="M1.728,0A1.728,1.728,0,1,1,0,1.727,1.727,1.727,0,0,1,1.728,0Z" transform="translate(43.188 0)" fill="#d5043e"/>
        <path id="Path_225" data-name="Path 225" d="M1.727,0A1.728,1.728,0,1,1,0,1.727,1.727,1.727,0,0,1,1.727,0Z" transform="translate(53.986 0)" fill="#d5043e"/>
        <path id="Path_226" data-name="Path 226" d="M1.728,0A1.728,1.728,0,1,1,0,1.727,1.727,1.727,0,0,1,1.728,0Z" transform="translate(64.783 0)" fill="#d5043e"/>
      </g>
      <g id="Group_92" data-name="Group 92">
        <path id="Path_227" data-name="Path 227" d="M1.727,0A1.728,1.728,0,1,1,0,1.727,1.727,1.727,0,0,1,1.727,0Z" fill="#d5043e"/>
        <path id="Path_228" data-name="Path 228" d="M1.728,0A1.728,1.728,0,1,1,0,1.727,1.727,1.727,0,0,1,1.728,0Z" transform="translate(10.797)" fill="#d5043e"/>
        <path id="Path_229" data-name="Path 229" d="M1.727,0A1.728,1.728,0,1,1,0,1.727,1.728,1.728,0,0,1,1.727,0Z" transform="translate(21.595)" fill="#d5043e"/>
        <path id="Path_230" data-name="Path 230" d="M1.727,0A1.728,1.728,0,1,1,0,1.727,1.727,1.727,0,0,1,1.727,0Z" transform="translate(32.391)" fill="#d5043e"/>
        <path id="Path_231" data-name="Path 231" d="M1.728,0A1.728,1.728,0,1,1,0,1.727,1.727,1.727,0,0,1,1.728,0Z" transform="translate(43.188)" fill="#d5043e"/>
        <path id="Path_232" data-name="Path 232" d="M1.727,0A1.728,1.728,0,1,1,0,1.727,1.727,1.727,0,0,1,1.727,0Z" transform="translate(53.986)" fill="#d5043e"/>
        <path id="Path_233" data-name="Path 233" d="M1.728,0A1.728,1.728,0,1,1,0,1.727,1.727,1.727,0,0,1,1.728,0Z" transform="translate(64.783)" fill="#d5043e"/>
      </g>
    </g>
    <g id="Group_97" data-name="Group 97" transform="translate(0 28.24)">
      <g id="Group_94" data-name="Group 94" transform="translate(0 19.003)">
        <path id="Path_234" data-name="Path 234" d="M1.727,0A1.727,1.727,0,1,1,0,1.728,1.727,1.727,0,0,1,1.727,0Z" fill="#d5043e"/>
        <path id="Path_235" data-name="Path 235" d="M1.728,0A1.727,1.727,0,1,1,0,1.728,1.727,1.727,0,0,1,1.728,0Z" transform="translate(10.797)" fill="#d5043e"/>
        <path id="Path_236" data-name="Path 236" d="M1.727,0A1.727,1.727,0,1,1,0,1.728,1.728,1.728,0,0,1,1.727,0Z" transform="translate(21.595)" fill="#d5043e"/>
        <path id="Path_237" data-name="Path 237" d="M1.727,0A1.727,1.727,0,1,1,0,1.728,1.727,1.727,0,0,1,1.727,0Z" transform="translate(32.391)" fill="#d5043e"/>
        <path id="Path_238" data-name="Path 238" d="M1.728,0A1.727,1.727,0,1,1,0,1.728,1.727,1.727,0,0,1,1.728,0Z" transform="translate(43.188)" fill="#d5043e"/>
        <path id="Path_239" data-name="Path 239" d="M1.727,0A1.727,1.727,0,1,1,0,1.728,1.727,1.727,0,0,1,1.727,0Z" transform="translate(53.986)" fill="#d5043e"/>
        <path id="Path_240" data-name="Path 240" d="M1.728,0A1.727,1.727,0,1,1,0,1.728,1.727,1.727,0,0,1,1.728,0Z" transform="translate(64.783)" fill="#d5043e"/>
      </g>
      <g id="Group_95" data-name="Group 95" transform="translate(0 9.502)">
        <path id="Path_241" data-name="Path 241" d="M1.727,0A1.727,1.727,0,1,1,0,1.728,1.727,1.727,0,0,1,1.727,0Z" fill="#d5043e"/>
        <path id="Path_242" data-name="Path 242" d="M1.728,0A1.727,1.727,0,1,1,0,1.728,1.727,1.727,0,0,1,1.728,0Z" transform="translate(10.797)" fill="#d5043e"/>
        <path id="Path_243" data-name="Path 243" d="M1.727,0A1.727,1.727,0,1,1,0,1.728,1.728,1.728,0,0,1,1.727,0Z" transform="translate(21.595)" fill="#d5043e"/>
        <path id="Path_244" data-name="Path 244" d="M1.727,0A1.727,1.727,0,1,1,0,1.728,1.727,1.727,0,0,1,1.727,0Z" transform="translate(32.391)" fill="#d5043e"/>
        <path id="Path_245" data-name="Path 245" d="M1.728,0A1.727,1.727,0,1,1,0,1.728,1.727,1.727,0,0,1,1.728,0Z" transform="translate(43.188)" fill="#d5043e"/>
        <path id="Path_246" data-name="Path 246" d="M1.727,0A1.727,1.727,0,1,1,0,1.728,1.727,1.727,0,0,1,1.727,0Z" transform="translate(53.986)" fill="#d5043e"/>
        <path id="Path_247" data-name="Path 247" d="M1.728,0A1.727,1.727,0,1,1,0,1.728,1.727,1.727,0,0,1,1.728,0Z" transform="translate(64.783)" fill="#d5043e"/>
      </g>
      <g id="Group_96" data-name="Group 96" transform="translate(0 0)">
        <path id="Path_248" data-name="Path 248" d="M1.727,0A1.727,1.727,0,1,1,0,1.728,1.728,1.728,0,0,1,1.727,0Z" fill="#d5043e"/>
        <path id="Path_249" data-name="Path 249" d="M1.728,0A1.727,1.727,0,1,1,0,1.728,1.727,1.727,0,0,1,1.728,0Z" transform="translate(10.797)" fill="#d5043e"/>
        <path id="Path_250" data-name="Path 250" d="M1.727,0A1.727,1.727,0,1,1,0,1.728,1.728,1.728,0,0,1,1.727,0Z" transform="translate(21.595)" fill="#d5043e"/>
        <path id="Path_251" data-name="Path 251" d="M1.727,0A1.727,1.727,0,1,1,0,1.728,1.728,1.728,0,0,1,1.727,0Z" transform="translate(32.391)" fill="#d5043e"/>
        <path id="Path_252" data-name="Path 252" d="M1.728,0A1.727,1.727,0,1,1,0,1.728,1.727,1.727,0,0,1,1.728,0Z" transform="translate(43.188)" fill="#d5043e"/>
        <path id="Path_253" data-name="Path 253" d="M1.727,0A1.727,1.727,0,1,1,0,1.728,1.728,1.728,0,0,1,1.727,0Z" transform="translate(53.986)" fill="#d5043e"/>
        <path id="Path_254" data-name="Path 254" d="M1.728,0A1.727,1.727,0,1,1,0,1.728,1.727,1.727,0,0,1,1.728,0Z" transform="translate(64.783)" fill="#d5043e"/>
      </g>
    </g>
    <g id="Group_101" data-name="Group 101" transform="translate(0 56.48)">
      <g id="Group_98" data-name="Group 98" transform="translate(0 19.003)">
        <path id="Path_255" data-name="Path 255" d="M1.727,0A1.728,1.728,0,1,1,0,1.728,1.728,1.728,0,0,1,1.727,0Z" fill="#d5043e"/>
        <path id="Path_256" data-name="Path 256" d="M1.728,0A1.728,1.728,0,1,1,0,1.728,1.727,1.727,0,0,1,1.728,0Z" transform="translate(10.797)" fill="#d5043e"/>
        <path id="Path_257" data-name="Path 257" d="M1.727,0A1.728,1.728,0,1,1,0,1.728,1.728,1.728,0,0,1,1.727,0Z" transform="translate(21.595)" fill="#d5043e"/>
        <path id="Path_258" data-name="Path 258" d="M1.727,0A1.728,1.728,0,1,1,0,1.728,1.728,1.728,0,0,1,1.727,0Z" transform="translate(32.391)" fill="#d5043e"/>
        <path id="Path_259" data-name="Path 259" d="M1.728,0A1.728,1.728,0,1,1,0,1.728,1.727,1.727,0,0,1,1.728,0Z" transform="translate(43.188)" fill="#d5043e"/>
        <path id="Path_260" data-name="Path 260" d="M1.727,0A1.728,1.728,0,1,1,0,1.728,1.728,1.728,0,0,1,1.727,0Z" transform="translate(53.986)" fill="#d5043e"/>
        <path id="Path_261" data-name="Path 261" d="M1.728,0A1.728,1.728,0,1,1,0,1.728,1.727,1.727,0,0,1,1.728,0Z" transform="translate(64.783)" fill="#d5043e"/>
      </g>
      <g id="Group_99" data-name="Group 99" transform="translate(0 9.502)">
        <path id="Path_262" data-name="Path 262" d="M1.727,0A1.727,1.727,0,1,1,0,1.728,1.727,1.727,0,0,1,1.727,0Z" transform="translate(0 0)" fill="#d5043e"/>
        <path id="Path_263" data-name="Path 263" d="M1.728,0A1.727,1.727,0,1,1,0,1.728,1.727,1.727,0,0,1,1.728,0Z" transform="translate(10.797 0)" fill="#d5043e"/>
        <path id="Path_264" data-name="Path 264" d="M1.727,0A1.727,1.727,0,1,1,0,1.728,1.728,1.728,0,0,1,1.727,0Z" transform="translate(21.595 0)" fill="#d5043e"/>
        <path id="Path_265" data-name="Path 265" d="M1.727,0A1.727,1.727,0,1,1,0,1.728,1.727,1.727,0,0,1,1.727,0Z" transform="translate(32.391 0)" fill="#d5043e"/>
        <path id="Path_266" data-name="Path 266" d="M1.728,0A1.727,1.727,0,1,1,0,1.728,1.727,1.727,0,0,1,1.728,0Z" transform="translate(43.188 0)" fill="#d5043e"/>
        <path id="Path_267" data-name="Path 267" d="M1.727,0A1.727,1.727,0,1,1,0,1.728,1.727,1.727,0,0,1,1.727,0Z" transform="translate(53.986 0)" fill="#d5043e"/>
        <path id="Path_268" data-name="Path 268" d="M1.728,0A1.727,1.727,0,1,1,0,1.728,1.727,1.727,0,0,1,1.728,0Z" transform="translate(64.783 0)" fill="#d5043e"/>
      </g>
      <g id="Group_100" data-name="Group 100">
        <path id="Path_269" data-name="Path 269" d="M1.727,0A1.728,1.728,0,1,1,0,1.728,1.727,1.727,0,0,1,1.727,0Z" fill="#d5043e"/>
        <path id="Path_270" data-name="Path 270" d="M1.728,0A1.728,1.728,0,1,1,0,1.728,1.727,1.727,0,0,1,1.728,0Z" transform="translate(10.797)" fill="#d5043e"/>
        <path id="Path_271" data-name="Path 271" d="M1.727,0A1.728,1.728,0,1,1,0,1.728,1.728,1.728,0,0,1,1.727,0Z" transform="translate(21.595)" fill="#d5043e"/>
        <path id="Path_272" data-name="Path 272" d="M1.727,0A1.728,1.728,0,1,1,0,1.728,1.727,1.727,0,0,1,1.727,0Z" transform="translate(32.391)" fill="#d5043e"/>
        <path id="Path_273" data-name="Path 273" d="M1.728,0A1.728,1.728,0,1,1,0,1.728,1.727,1.727,0,0,1,1.728,0Z" transform="translate(43.188)" fill="#d5043e"/>
        <path id="Path_274" data-name="Path 274" d="M1.727,0A1.728,1.728,0,1,1,0,1.728,1.727,1.727,0,0,1,1.727,0Z" transform="translate(53.986)" fill="#d5043e"/>
        <path id="Path_275" data-name="Path 275" d="M1.728,0A1.728,1.728,0,1,1,0,1.728,1.727,1.727,0,0,1,1.728,0Z" transform="translate(64.783)" fill="#d5043e"/>
      </g>
    </g>
  </g>
</svg>
