<svg xmlns="http://www.w3.org/2000/svg" width="79.601" height="79.6" viewBox="0 0 79.601 79.6"><defs><style>.a{fill:#fff;}</style></defs><g transform="translate(39.8 26.533)"><path class="a" d="M249.287,160A9.3,9.3,0,0,1,240,169.289v2.653A11.953,11.953,0,0,0,251.94,160Z" transform="translate(-240 -160.002)"/></g><g transform="translate(27.86 14.593)"><path class="a" d="M168,99.942h2.653a9.3,9.3,0,0,1,9.287-9.287V88A11.953,11.953,0,0,0,168,99.942Z" transform="translate(-168 -88.002)"/></g><g transform="translate(34.488 19.9)"><path class="a" d="M215.678,126.353l-4.358-.726a.828.828,0,0,1,.133-1.645H215.1a.829.829,0,0,1,.828.828v.5h2.653v-.5a3.485,3.485,0,0,0-3.479-3.481h-.5V120h-2.653v1.327h-.5a3.481,3.481,0,0,0-.572,6.916l4.358.726a.828.828,0,0,1-.133,1.645h-3.654a.829.829,0,0,1-.828-.828v-.5h-2.653v.5a3.485,3.485,0,0,0,3.481,3.481h.5V134.6h2.653v-1.327h.5a3.481,3.481,0,0,0,.572-6.916Z" transform="translate(-207.969 -120.002)"/></g><g transform="translate(22.549 0)"><path class="a" d="M169.144,19.9V9.289h-2.653v6.242a17.378,17.378,0,0,0-2.653-2.562V5.309h-2.653v5.942a17.114,17.114,0,0,0-7.96-1.962c-.448,0-.888.033-1.327.068V0h-2.653V9.77a17.218,17.218,0,0,0-2.653.845V7.962h-2.653v3.98h.133a17.376,17.376,0,0,0-4.113,3.589V5.309H137.3V19.9a17.247,17.247,0,1,0,31.84,0Zm-5.992,17.216a14.547,14.547,0,1,1-1.968-22.792v6.9h2.653V16.557A14.547,14.547,0,0,1,163.153,37.118Z" transform="translate(-135.973 -0.002)"/></g><g transform="translate(47.76 0)"><rect class="a" width="2" height="3" transform="translate(0.24 0)"/></g><g transform="translate(30.513 2.653)"><rect class="a" width="2" height="2" transform="translate(0.486 0.347)"/></g><g transform="translate(58.375 2.657)"><path class="a" d="M365.256,22.431a1.327,1.327,0,0,0-1.087-1.087,5.132,5.132,0,0,1-4.217-4.216,1.327,1.327,0,0,0-2.616,0,5.132,5.132,0,0,1-4.217,4.216,1.327,1.327,0,0,0,0,2.616,5.132,5.132,0,0,1,4.217,4.216,1.327,1.327,0,0,0,2.616,0,5.132,5.132,0,0,1,4.217-4.216A1.327,1.327,0,0,0,365.256,22.431Zm-6.612,2.116a7.787,7.787,0,0,0-1.895-1.894,7.787,7.787,0,0,0,1.895-1.894,7.787,7.787,0,0,0,1.894,1.894A7.784,7.784,0,0,0,358.644,24.547Z" transform="translate(-352.013 -16.023)"/></g><g transform="translate(0 50.941)"><path class="a" d="M78.627,313.115a5.648,5.648,0,0,0-4.592-2.478,5.591,5.591,0,0,0-2.637.663L56.35,319.4a5.97,5.97,0,0,0-5.273-8.767H36.3a15.5,15.5,0,0,0-19.5,0H0v2.653H15.92v19.9H0v2.653H52.787a6.6,6.6,0,0,0,3.679-1.114l20.656-13.771A5.648,5.648,0,0,0,78.627,313.115Zm-2.976,5.636L54.994,332.528a3.959,3.959,0,0,1-2.208.663H18.573v-20.6a12.869,12.869,0,0,1,16.383.379,1.327,1.327,0,0,0,.864.318H51.077a3.317,3.317,0,1,1,0,6.633H37.147a1.327,1.327,0,1,0,0,2.653H55.72a1.327,1.327,0,0,0,.629-.158l16.307-8.781a2.969,2.969,0,0,1,2.994,5.113Z" transform="translate(0 -307.186)"/></g><g transform="translate(5.307 66.333)"><path class="a" d="M35.98,400a3.98,3.98,0,1,0,3.98,3.98A3.98,3.98,0,0,0,35.98,400Zm0,5.307a1.327,1.327,0,1,1,1.327-1.327A1.327,1.327,0,0,1,35.98,405.309Z" transform="translate(-32 -400.002)"/></g></svg>