<svg xmlns="http://www.w3.org/2000/svg" xmlns:xlink="http://www.w3.org/1999/xlink" width="106.804" height="37.374" viewBox="0 0 106.804 37.374"><defs><style>.a{fill:#fff;fill-rule:evenodd;}.b{fill:url(#a);}</style><linearGradient id="a" x1="0.748" x2="0.571" y2="1" gradientUnits="objectBoundingBox"><stop offset="0" stop-color="#fbd249"/><stop offset="0.204" stop-color="#f4265f"/><stop offset="1" stop-color="#45f9e5"/></linearGradient></defs><g transform="translate(60 0)"><g transform="translate(0 0)"><path class="a" d="M203.319,36.108a6.877,6.877,0,0,1,7.167,7.22,10.312,10.312,0,0,1-.131,1.654H200.142a3.239,3.239,0,0,0,3.15,2.494,3.022,3.022,0,0,0,2.862-1.549h3.36v1.523c-.866,1.943-3.465,3.177-6.3,3.177a7.078,7.078,0,0,1-7.482-7.351C195.732,39.049,198.83,36.108,203.319,36.108Zm-.236,3.15c-1.759,0-2.914,1.339-3.15,3.308h6.353A3.191,3.191,0,0,0,203.083,39.259Zm10.029-2.625h4.174V51.361c0,2.914-1.864,4.857-4.621,4.857a10.538,10.538,0,0,1-2.993-.446V52.359a5.9,5.9,0,0,0,1.575.184,1.743,1.743,0,0,0,1.864-1.838Zm-.315-4.017a2.39,2.39,0,1,1,2.389,2.31A2.275,2.275,0,0,1,212.8,32.617ZM235.059,43.38c0,4.279-3.072,7.246-7.508,7.246-4.463,0-7.508-2.967-7.508-7.246,0-4.306,3.045-7.272,7.508-7.272C231.988,36.108,235.059,39.075,235.059,43.38Zm-4.174,0a3.344,3.344,0,1,0-6.668,0,3.342,3.342,0,1,0,6.668,0Zm6.826,9.5a5.712,5.712,0,0,0,1.365.184c1.47,0,2.389-1.129,3.124-2.809l-5.776-11.814V36.633h3.649l3.78,8.4,2.967-8.4h3.649v1.811L245.875,50.6c-1.208,3.255-2.967,5.592-5.671,5.592a7.766,7.766,0,0,1-2.494-.42Zm21.606-16.776c4.384,0,7.535,3.045,7.535,7.272V50.1h-3.833V48.5a5.72,5.72,0,0,1-4.568,2.126c-3.912,0-6.616-2.967-6.616-7.246A7.1,7.1,0,0,1,259.317,36.108Zm.026,3.675a3.343,3.343,0,0,0-3.334,3.6,3.342,3.342,0,1,0,6.668,0A3.343,3.343,0,0,0,259.343,39.784Z" transform="translate(-220.047 -24.76)"/><path class="b" d="M4.1,16.422A8.068,8.068,0,0,1,0,9.2,8.261,8.261,0,0,1,4.02,2,16.035,16.035,0,0,1,12,0l.078,0h8.022V8.727H12.232a12.041,12.041,0,0,0-3.018.427,12.814,12.814,0,0,0,2.937.275,15.97,15.97,0,0,1,8.217,1.926,8.321,8.321,0,0,1,4.062,7.32,8.245,8.245,0,0,1-4.107,7.315,15.731,15.731,0,0,1-8.168,1.8,9.851,9.851,0,0,0-3.326.426,10.011,10.011,0,0,0,3.386.431h7.88v8.727h-7.88a15.492,15.492,0,0,1-8.151-1.825A8.289,8.289,0,0,1,0,28.222,8.3,8.3,0,0,1,4.033,20.9a15.338,15.338,0,0,1,8.118-1.84,10.656,10.656,0,0,0,3.39-.412,10.369,10.369,0,0,0-3.428-.494A15.73,15.73,0,0,1,4.1,16.422ZM8.5,28.05h0Zm-.08-19.2,0,0h0Z" transform="translate(-60)"/></g></g></svg>