<svg xmlns="http://www.w3.org/2000/svg" width="147.149" height="51.492" viewBox="0 0 147.149 51.492"><defs><style>.a{opacity:0.9;}.b,.c{fill:#fff;}.b{fill-rule:evenodd;}</style></defs><g class="a" transform="translate(60)"><g transform="translate(-60 0)"><path class="b" d="M206.185,38.31c5.823,0,9.874,4.087,9.874,9.947a14.207,14.207,0,0,1-.181,2.279h-14.07a4.462,4.462,0,0,0,4.34,3.436,4.164,4.164,0,0,0,3.943-2.134h4.63v2.1c-1.194,2.677-4.774,4.377-8.681,4.377-6.113,0-10.309-4.16-10.309-10.128C195.732,42.361,200,38.31,206.185,38.31Zm-.326,4.34c-2.423,0-4.015,1.845-4.34,4.557h8.753A4.4,4.4,0,0,0,205.86,42.65Zm13.817-3.617h5.751V59.325c0,4.015-2.568,6.691-6.366,6.691a14.519,14.519,0,0,1-4.123-.615V60.7a8.125,8.125,0,0,0,2.17.253,2.4,2.4,0,0,0,2.568-2.532Zm-.434-5.534a3.293,3.293,0,1,1,3.292,3.183A3.135,3.135,0,0,1,219.243,33.5Zm30.672,14.83c0,5.9-4.232,9.983-10.345,9.983-6.149,0-10.345-4.087-10.345-9.983,0-5.932,4.2-10.019,10.345-10.019C245.683,38.31,249.915,42.4,249.915,48.329Zm-5.751,0c0-2.93-1.917-4.955-4.594-4.955-2.713,0-4.594,2.026-4.594,4.955,0,2.894,1.881,4.919,4.594,4.919A4.575,4.575,0,0,0,244.164,48.329Zm9.4,13.094a7.87,7.87,0,0,0,1.881.253c2.026,0,3.291-1.555,4.3-3.87L251.8,41.529v-2.5h5.028l5.208,11.574,4.087-11.574h5.028v2.5l-6.33,16.747c-1.664,4.485-4.087,7.7-7.813,7.7a10.7,10.7,0,0,1-3.436-.579ZM283.336,38.31c6.04,0,10.381,4.2,10.381,10.019v9.26h-5.281V55.382a7.88,7.88,0,0,1-6.294,2.93c-5.389,0-9.115-4.087-9.115-9.983C273.028,42.505,277.3,38.31,283.336,38.31Zm.036,5.064c-2.677,0-4.594,2.062-4.594,4.955a4.6,4.6,0,1,0,9.187,0C287.966,45.435,286.049,43.374,283.372,43.374Z" transform="translate(-146.568 -22.674)"/><path class="c" d="M5.653,22.625A11.116,11.116,0,0,1,0,12.682,11.381,11.381,0,0,1,5.538,2.762C8.359,1.01,12,.167,16.527,0l.107,0H27.686V12.024H16.853a16.589,16.589,0,0,0-4.158.589,17.654,17.654,0,0,0,4.046.379c4.716.077,8.437.881,11.321,2.653a11.464,11.464,0,0,1,5.6,10.085A11.359,11.359,0,0,1,28,35.807c-2.9,1.736-6.633,2.48-11.254,2.48a13.572,13.572,0,0,0-4.582.587,13.792,13.792,0,0,0,4.665.594H27.686V51.492H16.829c-4.61,0-8.332-.754-11.229-2.515A11.42,11.42,0,0,1,0,38.882,11.436,11.436,0,0,1,5.556,28.8c2.886-1.771,6.593-2.531,11.185-2.535a14.681,14.681,0,0,0,4.67-.567,14.286,14.286,0,0,0-4.723-.681C12.156,25.01,8.5,24.294,5.653,22.625Zm6.062,16.02,0,0h0ZM11.6,12.2l0,0h0Z" transform="translate(0)"/></g></g></svg>