<svg xmlns="http://www.w3.org/2000/svg" width="79.41" height="76.763" viewBox="0 0 79.41 76.763"><defs><style>.a{fill:#fff;}</style></defs><g transform="translate(0 25.212)"><path class="a" d="M67.473,160.017H1.137A1.136,1.136,0,0,0,0,161.151v31.843a1.136,1.136,0,0,0,1.134,1.137H46.244a1.137,1.137,0,0,0,0-2.274H2.274V162.291H66.333v2.843a1.136,1.136,0,0,0,1.134,1.137h0a1.136,1.136,0,0,0,1.137-1.134v-3.983A1.136,1.136,0,0,0,67.473,160.017Z" transform="translate(0 -160.017)"/></g><g transform="translate(2.653 7.966)"><path class="a" d="M73.1,67.987,20.036,56.047a1.137,1.137,0,0,0-1.36.862l-2.653,11.94a1.138,1.138,0,0,0,2.221.494l2.405-10.827L72.6,70.2a1.072,1.072,0,0,0,.251.028,1.137,1.137,0,0,0,.248-2.246Z" transform="translate(-15.995 -56.019)"/></g><g transform="translate(17.226 0)"><path class="a" d="M139.965,21.337,108.125,8.07a1.141,1.141,0,0,0-1.459.543l-2.653,5.307A1.141,1.141,0,1,0,106.019,15c.012-.022.023-.044.033-.066v0l2.177-4.357,30.857,12.857a1.14,1.14,0,1,0,.878-2.1Z" transform="translate(-103.875 -7.982)"/></g><g transform="translate(42.453 30.519)"><path class="a" d="M267.667,192.017h-10.53a1.137,1.137,0,0,0,0,2.274h10.53a1.137,1.137,0,1,0,0-2.274Z" transform="translate(-256 -192.017)"/></g><g transform="translate(21.302 30.595)"><path class="a" d="M140.131,192.473a11.675,11.675,0,1,0,11.675,11.675A11.675,11.675,0,0,0,140.131,192.473Zm0,21.227a9.552,9.552,0,1,1,9.552-9.552A9.552,9.552,0,0,1,140.131,213.7Z" transform="translate(-128.456 -192.473)"/></g><g transform="translate(50.224 34.309)"><path class="a" d="M317.449,214.873c-7.031,0-14.593,1.661-14.593,5.307v31.84c0,3.646,7.562,5.307,14.593,5.307s14.593-1.661,14.593-5.307V220.18C332.043,216.534,324.481,214.873,317.449,214.873ZM329.389,252c-.2.736-4.179,2.673-11.94,2.673s-11.74-1.937-11.94-2.653v-2.086c2.823,1.422,7.486,2.086,11.94,2.086s9.118-.67,11.94-2.087Zm0-5.307c-.2.736-4.179,2.673-11.94,2.673s-11.74-1.937-11.94-2.653v-2.086c2.823,1.422,7.486,2.086,11.94,2.086s9.118-.67,11.94-2.087Zm0-5.307c-.2.736-4.179,2.673-11.94,2.673s-11.74-1.937-11.94-2.653v-2.086c2.823,1.422,7.486,2.086,11.94,2.086s9.118-.67,11.94-2.087Zm0-5.307c-.2.736-4.179,2.673-11.94,2.673s-11.74-1.937-11.94-2.653v-2.086c2.823,1.422,7.486,2.086,11.94,2.086s9.118-.67,11.94-2.087Zm0-5.307c-.2.736-4.179,2.673-11.94,2.673s-11.74-1.937-11.94-2.653v-2.086c2.823,1.416,7.486,2.086,11.94,2.086s9.118-.67,11.94-2.087Zm0-5.307c-.2.736-4.179,2.673-11.94,2.673s-11.74-1.937-11.94-2.653V223.4c2.823,1.416,7.486,2.086,11.94,2.086s9.118-.67,11.94-2.087Zm-11.94-2.633c-7.749,0-11.726-1.932-11.94-2.629V220.2c.214-.739,4.191-2.669,11.94-2.669,7.695,0,11.675,1.9,11.94,2.653C329.124,220.931,325.144,222.833,317.449,222.833Z" transform="translate(-302.856 -214.873)"/></g><g transform="translate(5.305 30.519)"><path class="a" d="M49.05,213.242H39.022l-4.755-5.2v-8.623l5.251-5.128H49.05a1.137,1.137,0,1,0,0-2.274H39.056a1.138,1.138,0,0,0-.8.322l-5.926,5.78a1.425,1.425,0,0,0-.342.929v9.435a1.138,1.138,0,0,0,.3.767l5.39,5.9a1.137,1.137,0,0,0,.84.37H49.05a1.137,1.137,0,1,0,0-2.274Z" transform="translate(-31.992 -192.017)"/></g><g transform="translate(28.997 36.299)"><path class="a" d="M179.5,231.516h-1.327c-.413,0-.663-.231-.663-.332s.251-.332.663-.332h3.317a1.327,1.327,0,0,0,0-2.653h-1.327a1.327,1.327,0,0,0-2.653,0v.06a3.088,3.088,0,0,0-2.653,2.919,3.168,3.168,0,0,0,3.317,2.992H179.5c.413,0,.663.231.663.332s-.251.332-.663.332h-3.317a1.327,1.327,0,0,0,0,2.653h1.327a1.327,1.327,0,1,0,2.653,0v-.06a3.088,3.088,0,0,0,2.653-2.919A3.168,3.168,0,0,0,179.5,231.516Z" transform="translate(-174.856 -226.873)"/></g></svg>