<svg xmlns="http://www.w3.org/2000/svg" width="160.05" height="48.003" viewBox="0 0 160.05 48.003">
  <path id="spotify-1" d="M98.431,1369.15a24,24,0,1,0,24,24,24,24,0,0,0-24-24h0Zm11.007,34.616a1.5,1.5,0,0,1-2.057.5c-5.636-3.445-12.73-4.223-21.085-2.314a1.5,1.5,0,1,1-.666-2.916c9.143-2.09,16.985-1.191,23.312,2.675a1.5,1.5,0,0,1,.5,2.058h0Zm2.938-6.534a1.872,1.872,0,0,1-2.574.616c-6.45-3.965-16.286-5.113-23.917-2.8a1.871,1.871,0,1,1-1.087-3.58c8.717-2.645,19.553-1.364,26.961,3.189a1.871,1.871,0,0,1,.616,2.573h0Zm.252-6.805c-7.737-4.595-20.5-5.017-27.884-2.775a2.245,2.245,0,1,1-1.3-4.3c8.478-2.574,22.572-2.076,31.478,3.211a2.245,2.245,0,0,1-2.291,3.861h0Zm27.1.88c-4.144-.988-4.882-1.682-4.882-3.139,0-1.377,1.3-2.3,3.224-2.3a9.421,9.421,0,0,1,5.664,2.152.271.271,0,0,0,.2.05.268.268,0,0,0,.179-.111l2.023-2.852a.272.272,0,0,0-.052-.369,12.242,12.242,0,0,0-7.959-2.757c-4.475,0-7.6,2.685-7.6,6.527,0,4.12,2.7,5.579,7.355,6.7,3.966.914,4.635,1.679,4.635,3.047,0,1.516-1.353,2.458-3.531,2.458a9.519,9.519,0,0,1-6.6-2.726.285.285,0,0,0-.2-.065.27.27,0,0,0-.186.1l-2.269,2.7a.269.269,0,0,0,.027.377,13.526,13.526,0,0,0,9.135,3.5c4.822,0,7.937-2.635,7.937-6.712.009-3.442-2.052-5.348-7.1-6.576l-.009,0Zm18.016-4.087a6.5,6.5,0,0,0-5.218,2.51v-1.9a.272.272,0,0,0-.271-.272h-3.711a.272.272,0,0,0-.271.272v21.095a.272.272,0,0,0,.271.272h3.711a.272.272,0,0,0,.271-.272v-6.659a6.665,6.665,0,0,0,5.218,2.362c3.883,0,7.814-2.989,7.814-8.7s-3.927-8.706-7.81-8.706Zm3.5,8.706c0,2.91-1.792,4.941-4.359,4.941-2.537,0-4.451-2.123-4.451-4.941s1.914-4.941,4.451-4.941,4.359,2.077,4.359,4.94Zm14.391-8.706a8.723,8.723,0,1,0,8.887,8.706,8.75,8.75,0,0,0-8.887-8.706Zm0,13.675a4.719,4.719,0,0,1-4.665-4.971,4.608,4.608,0,0,1,4.6-4.911,4.734,4.734,0,0,1,4.7,4.973,4.62,4.62,0,0,1-4.634,4.909Zm19.567-13.336h-4.083v-4.175a.271.271,0,0,0-.271-.272h-3.71a.272.272,0,0,0-.272.272v4.175h-1.784a.271.271,0,0,0-.27.272v3.189a.272.272,0,0,0,.27.272h1.784v8.252c0,3.335,1.66,5.026,4.933,5.026a6.769,6.769,0,0,0,3.476-.865.271.271,0,0,0,.137-.235v-3.037a.272.272,0,0,0-.393-.244,4.676,4.676,0,0,1-2.178.526c-1.191,0-1.722-.541-1.722-1.752v-7.668H195.2a.271.271,0,0,0,.271-.272v-3.189a.263.263,0,0,0-.267-.272Zm14.227.016v-.513c0-1.508.578-2.181,1.876-2.181a6.263,6.263,0,0,1,2.091.386.271.271,0,0,0,.357-.258v-3.127a.271.271,0,0,0-.192-.26,10.187,10.187,0,0,0-3.084-.443c-3.427,0-5.239,1.93-5.239,5.579v.785h-1.783a.273.273,0,0,0-.272.272v3.205a.273.273,0,0,0,.272.272h1.783v12.728a.271.271,0,0,0,.271.272h3.711a.272.272,0,0,0,.272-.272v-12.727h3.464l5.307,12.725c-.6,1.337-1.195,1.6-2,1.6a4.281,4.281,0,0,1-2.046-.58.278.278,0,0,0-.216-.02.273.273,0,0,0-.16.146l-1.258,2.759a.27.27,0,0,0,.117.351,7.814,7.814,0,0,0,3.963,1.015c2.74,0,4.254-1.276,5.589-4.71l6.437-16.635a.272.272,0,0,0-.252-.371h-3.863a.273.273,0,0,0-.257.182l-3.957,11.3-4.334-11.311a.271.271,0,0,0-.253-.175H209.43Zm-8.249-.016h-3.711a.272.272,0,0,0-.272.272v16.189a.272.272,0,0,0,.272.272h3.711a.273.273,0,0,0,.272-.272v-16.188a.271.271,0,0,0-.272-.272Zm-1.834-7.371a2.661,2.661,0,1,0,2.661,2.66,2.661,2.661,0,0,0-2.661-2.66Zm32.507,12.576a2.618,2.618,0,1,1,2.625-2.627,2.6,2.6,0,0,1-2.625,2.627Zm.014-4.977a2.358,2.358,0,1,0,2.337,2.35,2.335,2.335,0,0,0-2.337-2.35h0Zm.579,2.619.739,1.034h-.623l-.665-.949h-.572v.949h-.521V1388.7h1.222c.637,0,1.056.326,1.056.875a.814.814,0,0,1-.633.833h0Zm-.441-1.236h-.68v.867h.68c.339,0,.542-.166.542-.434s-.2-.433-.542-.433Z" transform="translate(-74.43 -1369.15)" fill="#2ebd59"/>
</svg>
