<svg xmlns="http://www.w3.org/2000/svg" xmlns:xlink="http://www.w3.org/1999/xlink" width="266" height="170" viewBox="0 0 266 170">
  <defs>
    <filter id="Rectangle_1299" x="0" y="0" width="266" height="170" filterUnits="userSpaceOnUse">
      <feOffset dy="3" input="SourceAlpha"/>
      <feGaussianBlur stdDeviation="12.5" result="blur"/>
      <feFlood flood-opacity="0.161"/>
      <feComposite operator="in" in2="blur"/>
      <feComposite in="SourceGraphic"/>
    </filter>
  </defs>
  <g id="deezer" transform="translate(-587.5 -4353.5)">
    <g transform="matrix(1, 0, 0, 1, 587.5, 4353.5)" filter="url(#Rectangle_1299)">
      <rect id="Rectangle_1299-2" data-name="Rectangle 1299" width="191" height="95" rx="5" transform="translate(37.5 34.5)" fill="#0d0d0d"/>
    </g>
    <g id="deezer-2" data-name="deezer" transform="translate(683 4416.152)">
      <path id="path59" d="M38.3,21.658V20.1H51.7v3.116H38.3V21.658Zm0-4.986V15.114H51.7V18.23H38.3V16.672Zm0-4.986V10.128H51.7v3.116H38.3V11.686Zm0-5.142V4.986H51.7V8.258H38.3V6.544Zm0-4.83V0H51.7V3.428H38.3V1.714Z" transform="translate(21.376)" fill="#b1e3fa"/>
      <path id="path57" d="M19.1,19.872V18.314H32.5V21.43H19.1Zm0-4.986V13.328H32.5v3.116H19.1Zm0-4.986V8.342H32.5v3.116H19.1Zm0-5.142V3.2H32.5V6.472H19.1Z" transform="translate(10.66 1.786)" fill="#f7bacf"/>
      <path id="path55" d="M28.7,16.244V14.686H42.1V17.8H28.7V16.244Zm0-4.986V9.7H42.1v3.116H28.7V11.258Z" transform="translate(16.018 5.414)" fill="#e7ee9f"/>
      <path id="path53" d="M9.6,27.686V26.128H22.688v3.116H9.6Zm0-5.142V20.986H22.688V24.1H9.6Zm0-4.986V16H22.688v3.116H9.6Z" transform="translate(5.358 8.93)" fill="#feea3a"/>
      <path id="path51" d="M0,16.244V14.686H13.088V17.8H0Zm0-4.986V9.7H13.088v3.116H0Z" transform="translate(0 5.414)" fill="#fe9d7f"/>
      <path id="path49" d="M38.4,27.686V26.128H51.488v3.116H38.4Zm0-5.142V20.986H51.488V24.1H38.4Zm0-4.986V16H51.488v3.116H38.4Z" transform="translate(21.432 8.93)" fill="#4ec2f6"/>
      <path id="path47" d="M28.8,27.686V26.128H41.888v3.116H28.8V27.686Zm0-5.142V20.986H41.888V24.1H28.8V22.544Zm0-4.986V16H41.888v3.116H28.8V17.558Z" transform="translate(16.074 8.93)" fill="#ccdb38"/>
      <path id="path45" d="M19.2,27.686V26.128H32.288v3.116H19.2Zm0-5.142V20.986H32.288V24.1H19.2Zm0-4.986V16H32.288v3.116H19.2Z" transform="translate(10.716 8.93)" fill="#fe3f80"/>
      <path id="path43" d="M0,27.686V26.128H13.088v3.116H0Zm0-5.142V20.986H13.088V24.1H0Zm0-4.986V16H13.088v3.116H0Z" transform="translate(0 8.93)" fill="#fe3d02"/>
    </g>
  </g>
</svg>
