<svg xmlns="http://www.w3.org/2000/svg" xmlns:xlink="http://www.w3.org/1999/xlink" width="266" height="170" viewBox="0 0 266 170">
  <defs>
    <filter id="Rectangle_1299" x="0" y="0" width="266" height="170" filterUnits="userSpaceOnUse">
      <feOffset dy="3" input="SourceAlpha"/>
      <feGaussianBlur stdDeviation="12.5" result="blur"/>
      <feFlood flood-opacity="0.161"/>
      <feComposite operator="in" in2="blur"/>
      <feComposite in="SourceGraphic"/>
    </filter>
  </defs>
  <g id="spotify" transform="translate(-165.5 -4353.5)">
    <g transform="matrix(1, 0, 0, 1, 165.5, 4353.5)" filter="url(#Rectangle_1299)">
      <rect id="Rectangle_1299-2" data-name="Rectangle 1299" width="191" height="95" rx="5" transform="translate(37.5 34.5)" fill="#0d0d0d"/>
    </g>
    <path id="spotify-1" d="M95.06,1369.15a20.63,20.63,0,1,0,20.63,20.63,20.63,20.63,0,0,0-20.63-20.63h0Zm9.461,29.754a1.285,1.285,0,0,1-1.768.428c-4.845-2.961-10.942-3.63-18.123-1.989a1.285,1.285,0,1,1-.572-2.506c7.859-1.8,14.6-1.023,20.037,2.3a1.286,1.286,0,0,1,.426,1.769h0Zm2.525-5.616a1.61,1.61,0,0,1-2.212.53c-5.544-3.408-14-4.4-20.557-2.4a1.608,1.608,0,1,1-.935-3.078c7.492-2.273,16.806-1.172,23.175,2.741a1.608,1.608,0,0,1,.53,2.211h0Zm.217-5.849c-6.65-3.949-17.619-4.312-23.967-2.386a1.93,1.93,0,1,1-1.12-3.693c7.287-2.212,19.4-1.785,27.057,2.76a1.93,1.93,0,0,1-1.969,3.319h0Zm23.3.757c-3.562-.85-4.2-1.446-4.2-2.7,0-1.184,1.114-1.98,2.771-1.98a8.1,8.1,0,0,1,4.869,1.85.233.233,0,0,0,.176.043.23.23,0,0,0,.154-.1l1.739-2.452a.234.234,0,0,0-.044-.317,10.522,10.522,0,0,0-6.841-2.37c-3.846,0-6.533,2.308-6.533,5.611,0,3.541,2.317,4.8,6.322,5.763,3.409.785,3.984,1.443,3.984,2.619,0,1.3-1.163,2.113-3.035,2.113a8.182,8.182,0,0,1-5.672-2.343.245.245,0,0,0-.171-.056.233.233,0,0,0-.16.082l-1.95,2.321a.232.232,0,0,0,.023.324,11.626,11.626,0,0,0,7.852,3.011c4.144,0,6.822-2.265,6.822-5.769.007-2.959-1.764-4.6-6.1-5.652l-.007,0Zm15.486-3.513a5.589,5.589,0,0,0-4.485,2.157v-1.632a.234.234,0,0,0-.233-.234h-3.19a.234.234,0,0,0-.233.234v18.132a.234.234,0,0,0,.233.234h3.19a.234.234,0,0,0,.233-.234v-5.723a5.729,5.729,0,0,0,4.485,2.03c3.338,0,6.717-2.569,6.717-7.481s-3.375-7.483-6.713-7.483Zm3.008,7.483c0,2.5-1.541,4.247-3.747,4.247a4.27,4.27,0,0,1,0-8.493c2.17,0,3.747,1.785,3.747,4.246Zm12.369-7.483a7.5,7.5,0,1,0,7.639,7.483,7.521,7.521,0,0,0-7.639-7.483Zm0,11.755a4.056,4.056,0,0,1-4.01-4.273,3.961,3.961,0,0,1,3.957-4.221,4.069,4.069,0,0,1,4.036,4.275,3.971,3.971,0,0,1-3.984,4.219Zm16.818-11.463h-3.51v-3.588a.233.233,0,0,0-.233-.234h-3.189a.234.234,0,0,0-.234.234v3.588h-1.534a.233.233,0,0,0-.232.234v2.741a.233.233,0,0,0,.232.234h1.534v7.093c0,2.866,1.427,4.32,4.24,4.32a5.819,5.819,0,0,0,2.988-.744.233.233,0,0,0,.118-.2v-2.61a.234.234,0,0,0-.338-.209,4.019,4.019,0,0,1-1.872.452c-1.023,0-1.48-.465-1.48-1.506v-6.591h3.51a.233.233,0,0,0,.233-.234v-2.741a.226.226,0,0,0-.229-.234Zm12.229.014v-.441c0-1.3.5-1.875,1.612-1.875a5.383,5.383,0,0,1,1.8.332.233.233,0,0,0,.307-.222v-2.688a.233.233,0,0,0-.165-.224,8.758,8.758,0,0,0-2.651-.381c-2.946,0-4.5,1.659-4.5,4.8v.675h-1.532a.234.234,0,0,0-.234.234v2.755a.235.235,0,0,0,.234.234h1.532v10.94a.233.233,0,0,0,.233.234h3.19a.234.234,0,0,0,.234-.234v-10.94H193.5l4.562,10.938c-.518,1.149-1.027,1.378-1.722,1.378a3.679,3.679,0,0,1-1.759-.5.239.239,0,0,0-.186-.017.235.235,0,0,0-.138.126l-1.081,2.372a.232.232,0,0,0,.1.3,6.716,6.716,0,0,0,3.406.872c2.355,0,3.657-1.1,4.8-4.048l5.533-14.3a.233.233,0,0,0-.217-.319h-3.32a.234.234,0,0,0-.221.157l-3.4,9.716-3.726-9.722a.233.233,0,0,0-.218-.15h-5.449Zm-7.09-.014h-3.189a.234.234,0,0,0-.234.234v13.915a.234.234,0,0,0,.234.234h3.189a.234.234,0,0,0,.234-.234v-13.914a.233.233,0,0,0-.234-.234Zm-1.577-6.336a2.287,2.287,0,1,0,2.287,2.286,2.287,2.287,0,0,0-2.287-2.286Zm27.941,10.81A2.251,2.251,0,1,1,212,1387.19a2.236,2.236,0,0,1-2.256,2.258Zm.012-4.278a2.027,2.027,0,1,0,2.009,2.02,2.007,2.007,0,0,0-2.009-2.02h0Zm.5,2.251.635.889h-.535l-.572-.815h-.491v.815h-.448v-2.356h1.051c.547,0,.907.28.907.752a.7.7,0,0,1-.544.716h0Zm-.379-1.063h-.584v.745h.584c.292,0,.466-.143.466-.373s-.175-.372-.466-.372Z" transform="translate(155.57 3045.5)" fill="#2ebd59"/>
  </g>
</svg>
