<svg xmlns="http://www.w3.org/2000/svg" xmlns:xlink="http://www.w3.org/1999/xlink" width="266" height="170" viewBox="0 0 266 170">
  <defs>
    <filter id="Rectangle_1299" x="0" y="0" width="266" height="170" filterUnits="userSpaceOnUse">
      <feOffset dy="3" input="SourceAlpha"/>
      <feGaussianBlur stdDeviation="12.5" result="blur"/>
      <feFlood flood-opacity="0.161"/>
      <feComposite operator="in" in2="blur"/>
      <feComposite in="SourceGraphic"/>
    </filter>
  </defs>
  <g id="tidal" transform="translate(-798.5 -4353.5)">
    <g transform="matrix(1, 0, 0, 1, 798.5, 4353.5)" filter="url(#Rectangle_1299)">
      <rect id="Rectangle_1299-2" data-name="Rectangle 1299" width="191" height="95" rx="5" transform="translate(37.5 34.5)" fill="#0d0d0d"/>
    </g>
    <g id="Group_2321" data-name="Group 2321" transform="translate(872 4428.018)">
      <rect id="Rectangle_1264" data-name="Rectangle 1264" width="5.431" height="5.431" transform="translate(0 3.986) rotate(-45)" fill="#fff"/>
      <path id="Path_2317" data-name="Path 2317" d="M60,286.737l3.837,3.837,3.837-3.837L63.837,282.9Z" transform="translate(-52.336 -282.743)" fill="#fff"/>
      <path id="Path_2318" data-name="Path 2318" d="M60,325.737l3.837,3.837,3.837-3.837L63.837,321.9Z" transform="translate(-52.336 -314.069)" fill="#fff"/>
      <path id="Path_2319" data-name="Path 2319" d="M99,286.737l3.837,3.837,3.837-3.837-3.837-3.837Z" transform="translate(-83.662 -282.743)" fill="#fff"/>
      <path id="Path_2320" data-name="Path 2320" d="M191.5,282.7v3.109h4.683v12.219h3.365V285.809h4.663V282.7Z" transform="translate(-157.962 -282.582)" fill="#fff"/>
      <rect id="Rectangle_1265" data-name="Rectangle 1265" width="3.365" height="15.328" transform="translate(53.372 0.118)" fill="#fff"/>
      <g id="Group_2320" data-name="Group 2320" transform="translate(64.941)">
        <path id="Path_2321" data-name="Path 2321" d="M357.081,298.028H351.1V282.7h5.981c4.821,0,8.146,3.306,8.146,7.615v.039c0,4.329-3.325,7.674-8.146,7.674m4.624-7.674a4.41,4.41,0,0,0-4.624-4.624h-2.6v9.248h2.6a4.379,4.379,0,0,0,4.624-4.584Z" transform="translate(-351.1 -282.582)" fill="#fff"/>
        <path id="Path_2322" data-name="Path 2322" d="M461.011,297.546l-1.4-3.443H453.14l-1.4,3.443H448.3l6.572-15.446h3.109l6.572,15.446Zm-4.644-11.392-2.046,4.978h4.073Z" transform="translate(-429.175 -282.1)" fill="#fff"/>
        <path id="Path_2323" data-name="Path 2323" d="M565.1,298.028V282.7h3.365v12.258h7.654v3.069Z" transform="translate(-522.993 -282.582)" fill="#fff"/>
      </g>
    </g>
  </g>
</svg>
