<svg xmlns="http://www.w3.org/2000/svg" width="61.673" height="62.172" viewBox="0 0 61.673 62.172"><defs><style>.a{fill:#fff;stroke:#fff;stroke-width:0.8px;}</style></defs><g transform="translate(-8402.614 315.266)"><path class="a" d="M72.423,167.634h7.163a1.092,1.092,0,0,0,1.091-1.09v-2.422a.748.748,0,1,0-1.5,0v2.015H72.829V159.8H76a.748.748,0,1,0,0-1.5H72.423a1.092,1.092,0,0,0-1.091,1.09v7.154A1.092,1.092,0,0,0,72.423,167.634Z" transform="translate(8339.082 -454.668)"/><path class="a" d="M102.161,153.718a.748.748,0,0,0-1.054.1l-3.57,4.29-1.146-.927a.748.748,0,1,0-.941,1.164l1.377,1.114a1.187,1.187,0,0,0,1.585-.07l.03-.029,3.815-4.585a.748.748,0,0,0-.1-1.054Z" transform="translate(8318.217 -450.506)"/><path class="a" d="M231.928,162.482h-29.2a.748.748,0,0,0,0,1.5h29.2a.748.748,0,0,0,0-1.5Z" transform="translate(8224.735 -458.328)"/><path class="a" d="M231.928,212.193h-29.2a.748.748,0,0,0,0,1.5h29.2a.748.748,0,0,0,0-1.5Z" transform="translate(8224.735 -501.838)"/><path class="a" d="M79.928,290.542a.748.748,0,0,0-.748.748v2.015H72.829v-6.341H76a.748.748,0,0,0,0-1.5H72.423a1.092,1.092,0,0,0-1.091,1.09v7.154a1.092,1.092,0,0,0,1.091,1.09h7.163a1.092,1.092,0,0,0,1.091-1.09V291.29a.748.748,0,0,0-.748-.748Z" transform="translate(8339.082 -565.973)"/><path class="a" d="M102.162,280.885a.748.748,0,0,0-1.054.1l-3.57,4.29-1.146-.927a.748.748,0,1,0-.942,1.164l1.377,1.114a1.187,1.187,0,0,0,1.585-.07l.03-.029,3.815-4.585A.748.748,0,0,0,102.162,280.885Z" transform="translate(8318.216 -561.81)"/><path class="a" d="M394.181,289.65H388.1a.748.748,0,0,0,0,1.5h6.081a.748.748,0,0,0,0-1.5Z" transform="translate(8062.482 -569.633)"/><path class="a" d="M212.208,289.65h-9.485a.748.748,0,0,0,0,1.5h9.485a.748.748,0,0,0,0-1.5Z" transform="translate(8224.735 -569.633)"/><path class="a" d="M205.28,339.362h-2.556a.748.748,0,0,0,0,1.5h2.556a.748.748,0,0,0,0-1.5Z" transform="translate(8224.735 -613.144)"/><path class="a" d="M69.425,10H15.447A3.451,3.451,0,0,0,12,13.447V58.178a3.45,3.45,0,0,0,3.442,3.447l28.545.2,1.446,5.682c0,.01.005.02.008.03a5.341,5.341,0,0,0,5.147,3.832H61.024A5.382,5.382,0,0,0,66.4,66v-4.2l3.049-.166a3.451,3.451,0,0,0,3.425-3.447V13.447A3.451,3.451,0,0,0,69.425,10ZM15.447,11.5H69.425a1.952,1.952,0,0,1,1.95,1.95v7.578H13.5V13.447a1.952,1.952,0,0,1,1.95-1.95ZM64.9,66a3.883,3.883,0,0,1-3.878,3.879H50.589a3.853,3.853,0,0,1-3.709-2.751L45.3,60.9a26.529,26.529,0,0,0-1.489-4.279l-.122-.291a4.925,4.925,0,0,1,4.054,2.128l1.287,1.865V63.1a.748.748,0,0,0,1.5,0V42.76a1.408,1.408,0,0,1,2.816,0V56.046a.747.747,0,0,0,.032.216v3.051a.748.748,0,1,0,1.5,0v-4.18a1.116,1.116,0,0,1,2.233,0v.848a2.706,2.706,0,0,0-.029.395v2.938a.748.748,0,0,0,.748.748h.029a.748.748,0,0,0,.748-.748v-3.2a1.2,1.2,0,0,1,2.374.26v3.714a.748.748,0,1,0,1.5,0V57.548a1.218,1.218,0,1,1,2.435,0Zm4.524-5.866h-.041l-2.986.162V57.548a2.712,2.712,0,0,0-4.174-2.288,2.7,2.7,0,0,0-3.858-1.192,2.6,2.6,0,0,0-3.533-1.281V42.76a2.9,2.9,0,0,0-5.809,0V57.687l-.055-.08a6.421,6.421,0,0,0-5.286-2.775,1.5,1.5,0,0,0-1.371,2.116l.126.282a25.039,25.039,0,0,1,1.145,3.1l-28.137-.2a1.952,1.952,0,0,1-1.95-1.949V22.521H71.376V58.179a1.952,1.952,0,0,1-1.95,1.95Z" transform="translate(8391.014 -324.866)"/><path class="a" d="M42.069,42.169A2.869,2.869,0,1,0,39.2,39.3,2.869,2.869,0,0,0,42.069,42.169Zm0-4.24A1.372,1.372,0,1,1,40.7,39.3,1.372,1.372,0,0,1,42.069,37.929Z" transform="translate(8367.206 -348)"/><path class="a" d="M102.7,42.169A2.869,2.869,0,1,0,99.833,39.3,2.869,2.869,0,0,0,102.7,42.169Zm0-4.24A1.372,1.372,0,1,1,101.33,39.3a1.372,1.372,0,0,1,1.372-1.372Z" transform="translate(8314.137 -348)"/><path class="a" d="M163.336,42.169a2.869,2.869,0,1,0-2.869-2.869A2.869,2.869,0,0,0,163.336,42.169Zm0-4.24a1.372,1.372,0,1,1-1.372,1.372,1.372,1.372,0,0,1,1.372-1.372Z" transform="translate(8261.066 -348)"/><path class="a" d="M267.748,53.8h24.316a.748.748,0,1,0,0-1.5H267.748a.748.748,0,1,0,0,1.5Z" transform="translate(8167.822 -361.89)"/></g></svg>