<svg xmlns="http://www.w3.org/2000/svg" width="78.997" height="106.327" viewBox="0 0 78.997 106.327"><defs><style>.a{fill:#fff;}</style></defs><g transform="translate(78.997) rotate(90)"><g transform="translate(0 29.61)"><path class="a" d="M2.691,0A2.692,2.692,0,1,1,0,2.693,2.692,2.692,0,0,1,2.691,0Z"/><path class="a" d="M2.693,0A2.692,2.692,0,1,1,0,2.693,2.691,2.691,0,0,1,2.693,0Z" transform="translate(16.823)"/><path class="a" d="M2.691,0A2.692,2.692,0,1,1,0,2.693,2.693,2.693,0,0,1,2.691,0Z" transform="translate(33.648)"/><path class="a" d="M2.691,0A2.692,2.692,0,1,1,0,2.693,2.692,2.692,0,0,1,2.691,0Z" transform="translate(50.472)"/><path class="a" d="M2.693,0A2.692,2.692,0,1,1,0,2.693,2.691,2.691,0,0,1,2.693,0Z" transform="translate(67.295)"/><path class="a" d="M2.691,0A2.692,2.692,0,1,1,0,2.693,2.692,2.692,0,0,1,2.691,0Z" transform="translate(84.12)"/><path class="a" d="M2.693,0A2.692,2.692,0,1,1,0,2.693,2.691,2.691,0,0,1,2.693,0Z" transform="translate(100.943)"/></g><g transform="translate(0 14.805)"><path class="a" d="M2.691,0A2.692,2.692,0,1,1,0,2.693,2.692,2.692,0,0,1,2.691,0Z" transform="translate(0 0)"/><path class="a" d="M2.693,0A2.692,2.692,0,1,1,0,2.693,2.691,2.691,0,0,1,2.693,0Z" transform="translate(16.823 0)"/><path class="a" d="M2.691,0A2.692,2.692,0,1,1,0,2.693,2.693,2.693,0,0,1,2.691,0Z" transform="translate(33.648 0)"/><path class="a" d="M2.691,0A2.692,2.692,0,1,1,0,2.693,2.692,2.692,0,0,1,2.691,0Z" transform="translate(50.472 0)"/><path class="a" d="M2.693,0A2.692,2.692,0,1,1,0,2.693,2.691,2.691,0,0,1,2.693,0Z" transform="translate(67.295 0)"/><path class="a" d="M2.691,0A2.692,2.692,0,1,1,0,2.693,2.692,2.692,0,0,1,2.691,0Z" transform="translate(84.12 0)"/><path class="a" d="M2.693,0A2.692,2.692,0,1,1,0,2.693,2.691,2.691,0,0,1,2.693,0Z" transform="translate(100.943 0)"/></g><path class="a" d="M2.691,0A2.692,2.692,0,1,1,0,2.693,2.692,2.692,0,0,1,2.691,0Z"/><path class="a" d="M2.693,0A2.692,2.692,0,1,1,0,2.693,2.691,2.691,0,0,1,2.693,0Z" transform="translate(16.823)"/><path class="a" d="M2.691,0A2.692,2.692,0,1,1,0,2.693,2.693,2.693,0,0,1,2.691,0Z" transform="translate(33.648)"/><path class="a" d="M2.691,0A2.692,2.692,0,1,1,0,2.693,2.692,2.692,0,0,1,2.691,0Z" transform="translate(50.472)"/><path class="a" d="M2.693,0A2.692,2.692,0,1,1,0,2.693,2.691,2.691,0,0,1,2.693,0Z" transform="translate(67.295)"/><path class="a" d="M2.691,0A2.692,2.692,0,1,1,0,2.693,2.692,2.692,0,0,1,2.691,0Z" transform="translate(84.12)"/><path class="a" d="M2.693,0A2.692,2.692,0,1,1,0,2.693,2.691,2.691,0,0,1,2.693,0Z" transform="translate(100.943)"/></g><g transform="translate(34.994) rotate(90)"><g transform="translate(0 29.61)"><path class="a" d="M2.691,0A2.692,2.692,0,1,1,0,2.693,2.692,2.692,0,0,1,2.691,0Z"/><path class="a" d="M2.693,0A2.692,2.692,0,1,1,0,2.693,2.691,2.691,0,0,1,2.693,0Z" transform="translate(16.823)"/><path class="a" d="M2.691,0A2.692,2.692,0,1,1,0,2.693,2.693,2.693,0,0,1,2.691,0Z" transform="translate(33.648)"/><path class="a" d="M2.691,0A2.692,2.692,0,1,1,0,2.693,2.692,2.692,0,0,1,2.691,0Z" transform="translate(50.472)"/><path class="a" d="M2.693,0A2.692,2.692,0,1,1,0,2.693,2.691,2.691,0,0,1,2.693,0Z" transform="translate(67.295)"/><path class="a" d="M2.691,0A2.692,2.692,0,1,1,0,2.693,2.692,2.692,0,0,1,2.691,0Z" transform="translate(84.12)"/><path class="a" d="M2.693,0A2.692,2.692,0,1,1,0,2.693,2.691,2.691,0,0,1,2.693,0Z" transform="translate(100.943)"/></g><g transform="translate(0 14.805)"><path class="a" d="M2.691,0A2.692,2.692,0,1,1,0,2.693,2.692,2.692,0,0,1,2.691,0Z"/><path class="a" d="M2.693,0A2.692,2.692,0,1,1,0,2.693,2.691,2.691,0,0,1,2.693,0Z" transform="translate(16.823)"/><path class="a" d="M2.691,0A2.692,2.692,0,1,1,0,2.693,2.693,2.693,0,0,1,2.691,0Z" transform="translate(33.648)"/><path class="a" d="M2.691,0A2.692,2.692,0,1,1,0,2.693,2.692,2.692,0,0,1,2.691,0Z" transform="translate(50.472)"/><path class="a" d="M2.693,0A2.692,2.692,0,1,1,0,2.693,2.691,2.691,0,0,1,2.693,0Z" transform="translate(67.295)"/><path class="a" d="M2.691,0A2.692,2.692,0,1,1,0,2.693,2.692,2.692,0,0,1,2.691,0Z" transform="translate(84.12)"/><path class="a" d="M2.693,0A2.692,2.692,0,1,1,0,2.693,2.691,2.691,0,0,1,2.693,0Z" transform="translate(100.943)"/></g><path class="a" d="M2.691,0A2.692,2.692,0,1,1,0,2.693,2.692,2.692,0,0,1,2.691,0Z"/><path class="a" d="M2.693,0A2.692,2.692,0,1,1,0,2.693,2.691,2.691,0,0,1,2.693,0Z" transform="translate(16.823)"/><path class="a" d="M2.691,0A2.692,2.692,0,1,1,0,2.693,2.693,2.693,0,0,1,2.691,0Z" transform="translate(33.648)"/><path class="a" d="M2.691,0A2.692,2.692,0,1,1,0,2.693,2.692,2.692,0,0,1,2.691,0Z" transform="translate(50.472)"/><path class="a" d="M2.693,0A2.692,2.692,0,1,1,0,2.693,2.691,2.691,0,0,1,2.693,0Z" transform="translate(67.295)"/><path class="a" d="M2.691,0A2.692,2.692,0,1,1,0,2.693,2.692,2.692,0,0,1,2.691,0Z" transform="translate(84.12)"/><path class="a" d="M2.693,0A2.692,2.692,0,1,1,0,2.693,2.691,2.691,0,0,1,2.693,0Z" transform="translate(100.943)"/></g></svg>