<svg xmlns="http://www.w3.org/2000/svg" width="54.868" height="54.868" viewBox="0 0 54.868 54.868"><defs><style>.a{fill:#fff;}</style></defs><g transform="translate(32.149 20.361)"><path class="a" d="M301.072,190a1.072,1.072,0,1,0,1.072,1.072A1.072,1.072,0,0,0,301.072,190Z" transform="translate(-300 -190)"/></g><path class="a" d="M53.612,47.551l-14.3-14.3a21.24,21.24,0,0,0,3.558-11.814A21.433,21.433,0,1,0,21.433,42.866a21.242,21.242,0,0,0,11.814-3.558L37.2,43.262l0,0L47.551,53.612a4.286,4.286,0,1,0,6.062-6.061Zm-20.87-10.5h0a19.309,19.309,0,1,1,4.307-4.307A19.383,19.383,0,0,1,32.743,37.05Zm2.248.972a21.505,21.505,0,0,0,3.03-3.03l3.04,3.04a26.012,26.012,0,0,1-3.03,3.03ZM52.1,52.1a2.142,2.142,0,0,1-3.03,0l-9.516-9.516a28.16,28.16,0,0,0,3.03-3.03L52.1,49.067a2.141,2.141,0,0,1,0,3.03Z"/><g transform="translate(4.287 4.287)"><path class="a" d="M57.146,40A17.146,17.146,0,1,0,74.293,57.146,17.166,17.166,0,0,0,57.146,40Zm0,32.149a15,15,0,1,1,15-15A15.02,15.02,0,0,1,57.146,72.149Z" transform="translate(-40 -40)"/></g><g transform="translate(20.361 8.573)"><path class="a" d="M203.081,88.259A12.88,12.88,0,0,0,191.072,80a1.072,1.072,0,1,0,0,2.143,10.79,10.79,0,0,1,10.009,6.885,1.072,1.072,0,1,0,2-.769Z" transform="translate(-190 -80)"/></g></svg>