<svg id="deezer" xmlns="http://www.w3.org/2000/svg" width="85.017" height="44.412" viewBox="0 0 85.017 44.412">
  <path id="path59" d="M38.3,25.2V23.384H53.889V27.01H38.3V25.2Zm0-5.8V17.583H53.889v3.625H38.3V19.4Zm0-5.8V11.783H53.889v3.625H38.3V13.6Zm0-5.982V5.8H53.889V9.607H38.3V7.613Zm0-5.619V0H53.889V3.988H38.3V1.994Z" transform="translate(31.127)" fill="#b1e3fa"/>
  <path id="path57" d="M19.1,22.6V20.783H34.689v3.625H19.1Zm0-5.8V14.983H34.689v3.625H19.1Zm0-5.8V9.182H34.689v3.625H19.1Zm0-5.982V3.2H34.689V7.007H19.1Z" transform="translate(15.523 2.601)" fill="#f7bacf"/>
  <path id="path55" d="M28.7,17.313V15.5H44.289v3.625H28.7V17.313Zm0-5.8V9.7H44.289v3.625H28.7V11.513Z" transform="translate(23.325 7.883)" fill="#e7ee9f"/>
  <path id="path53" d="M9.6,29.6V27.783H24.827v3.625H9.6Zm0-5.982V21.8H24.827v3.625H9.6Zm0-5.8V16H24.827v3.625H9.6Z" transform="translate(7.802 13.004)" fill="#feea3a"/>
  <path id="path51" d="M0,17.313V15.5H15.227v3.625H0Zm0-5.8V9.7H15.227v3.625H0Z" transform="translate(0 7.883)" fill="#fe9d7f"/>
  <path id="path49" d="M38.4,29.6V27.783H53.627v3.625H38.4Zm0-5.982V21.8H53.627v3.625H38.4Zm0-5.8V16H53.627v3.625H38.4Z" transform="translate(31.208 13.004)" fill="#4ec2f6"/>
  <path id="path47" d="M28.8,29.6V27.783H44.027v3.625H28.8V29.6Zm0-5.982V21.8H44.027v3.625H28.8V23.613Zm0-5.8V16H44.027v3.625H28.8V17.813Z" transform="translate(23.406 13.004)" fill="#ccdb38"/>
  <path id="path45" d="M19.2,29.6V27.783H34.427v3.625H19.2Zm0-5.982V21.8H34.427v3.625H19.2Zm0-5.8V16H34.427v3.625H19.2Z" transform="translate(15.604 13.004)" fill="#fe3f80"/>
  <path id="path43" d="M0,29.6V27.783H15.227v3.625H0Zm0-5.982V21.8H15.227v3.625H0Zm0-5.8V16H15.227v3.625H0Z" transform="translate(0 13.004)" fill="#fe3d02"/>
</svg>
