<svg id="youtube-icon" xmlns="http://www.w3.org/2000/svg" width="68.229" height="47.918" viewBox="0 0 68.229 47.918">
  <path id="Path_2303" data-name="Path 2303" d="M45.13,33.831c-6.256-3.343-12.246-6.417-18.369-9.625V43.4c6.443-3.5,13.234-6.71,18.4-9.571H45.13Z" transform="translate(0.319 -10.57)" fill="#fff"/>
  <path id="Path_2304" data-name="Path 2304" d="M45.13,33.831c-6.256-3.343-18.369-9.625-18.369-9.625l16.15,10.855s-2.942,1.632,2.219-1.229Z" transform="translate(0.319 -10.57)" fill="#e8e0e0"/>
  <path id="Path_2305" data-name="Path 2305" d="M33.625,61.293c-12.994-.239-17.432-.454-20.16-1.016A8.861,8.861,0,0,1,8.84,57.871a9.737,9.737,0,0,1-2.192-4.225,27.635,27.635,0,0,1-.935-6.2,147.333,147.333,0,0,1,0-20.107c.418-3.714.62-8.123,3.395-10.7a9.1,9.1,0,0,1,4.546-2.3c2.673-.508,14.063-.909,25.855-.909,11.765,0,23.18.4,25.856.909a8.9,8.9,0,0,1,5.32,3.154c2.532,3.982,2.576,8.934,2.833,12.808.106,1.846.106,12.326,0,14.171-.4,6.122-.722,8.287-1.63,10.533A7.765,7.765,0,0,1,70.015,58a8.969,8.969,0,0,1-4.76,2.433c-11.244.846-20.793,1.029-31.63.856ZM50.845,36.7c-6.256-3.343-12.246-6.443-18.369-9.652v19.2c6.443-3.5,13.236-6.711,18.4-9.572Z" transform="translate(-5.368 -13.434)" fill="#cd201f"/>
</svg>
