<svg xmlns="http://www.w3.org/2000/svg" width="92.28" height="24.09" viewBox="0 0 92.28 24.09">
  <g id="MyBartty_Logo-White" data-name="MyBartty Logo-White" transform="translate(6792.95 3949)">
    <path id="Path_159" data-name="Path 159" d="M-.18.06-.27-.06-1.95-1.47A36.942,36.942,0,0,1-.72-6.81,50.207,50.207,0,0,1,1.2-11.97l1.74,1.62q-.45.99-.84,1.995T1.38-6.3q.48-.69,1.005-1.455T3.45-9.24q.54-.72,1.1-1.35A6.577,6.577,0,0,1,5.7-11.64a1.119,1.119,0,0,1,.765-.09,2.105,2.105,0,0,1,.765.345,1.964,1.964,0,0,1,.585.66,1.519,1.519,0,0,1,.195.855q-.12.75-.27,1.38t-.33,1.2q.39-.54.765-1.065T8.94-9.42q.45-.57,1.005-1.23a3.069,3.069,0,0,1,1.275-.93,1.326,1.326,0,0,1,.435.015,3.289,3.289,0,0,1,.705.2,3.454,3.454,0,0,1,.735.39,1.589,1.589,0,0,1,.525.6,2.149,2.149,0,0,1,.225,1.035,5.144,5.144,0,0,1-.165,1.14,8.943,8.943,0,0,1-.375,1.14q-.225.555-.4,1A20.687,20.687,0,0,1,12-4.08a19.012,19.012,0,0,0-.9,2.01A4.7,4.7,0,0,0,12.27-3a10.656,10.656,0,0,0,1.56-2.31,23.408,23.408,0,0,1,1.38-2.4l1.71,1.65q-.39.57-.735,1.17t-.7,1.215q-.36.615-.765,1.185a8.188,8.188,0,0,1-.885,1.05,5.137,5.137,0,0,1-.675.555,4.04,4.04,0,0,1-.87.465,3.1,3.1,0,0,1-.915.21,1.387,1.387,0,0,1-.81-.18q-.45-.27-.975-.645A1.248,1.248,0,0,1,9-1.83a3.446,3.446,0,0,1,.18-1.35q.24-.78.57-1.59t.69-1.56q.36-.75.6-1.29.09-.24.3-.66a5.313,5.313,0,0,0,.33-.81q-.33.39-.69.78a8.346,8.346,0,0,0-.66.81L6.42-2.1q-.33.51-.645,1.035A11.743,11.743,0,0,1,5.1-.06L4.41-.69,3.36-1.62q.51-1.86,1.08-3.45t1.02-3.3q-.75.81-1.545,1.86T2.37-4.335Q1.62-3.21.96-2.085A21.081,21.081,0,0,0-.15.06ZM18.63-10.17q-.24.72-.66,1.755t-.8,2.145a16.736,16.736,0,0,0-.585,2.2,4.878,4.878,0,0,0-.03,1.935,1.884,1.884,0,0,0,.885-.3,6.965,6.965,0,0,0,1.1-.8,8.418,8.418,0,0,0,1.08-1.14,5.782,5.782,0,0,0,.81-1.365q.45-1.53.945-3t1.005-2.79L24.12-9.9q-.54,1.56-1,3.27T22.2-3.15q.63-.93,1.35-2.07t1.44-2.46l1.77,1.59q-.6.99-1.05,1.8t-.885,1.5A14.1,14.1,0,0,1,23.91-1.5,15.031,15.031,0,0,1,22.8-.27q-.45.42-.915.78t-.975.69q-.54,1.68-1.2,3.195A20.09,20.09,0,0,1,18.18,7.26a5.435,5.435,0,0,1-1.185,1.275,2.522,2.522,0,0,1-1.6.585,1.731,1.731,0,0,1-.78-.2,2.512,2.512,0,0,1-.66-.465,7.211,7.211,0,0,1-1.215-1.5A2.161,2.161,0,0,1,12.63,5.1a5.165,5.165,0,0,1,1.02-1.755,8.65,8.65,0,0,1,1.5-1.32A15.662,15.662,0,0,1,16.92.96l1.8-.93.42-1.38a4.973,4.973,0,0,1-1.59.63,3.2,3.2,0,0,1-1.38,0,2.148,2.148,0,0,1-1.305-.81,3.491,3.491,0,0,1-.615-1.95,9.6,9.6,0,0,1,.24-2.175,20.635,20.635,0,0,1,.585-2.04q.345-1,.765-2.01t.81-2.085ZM14.28,7.29a2.173,2.173,0,0,0,1.275-.435,3.928,3.928,0,0,0,.915-1.02,7.545,7.545,0,0,0,.675-1.365q.285-.75.615-1.5-.51.36-1.11.8a7.909,7.909,0,0,0-1.11.975,6.128,6.128,0,0,0-.87,1.17A2.98,2.98,0,0,0,14.28,7.29Z" transform="translate(-6791 -3934.03)" fill="#c1c1c1"/>
    <path id="Path_160" data-name="Path 160" d="M35.39-8.08a3.6,3.6,0,0,1,2.06,1.4,4.067,4.067,0,0,1,.74,2.42,4.173,4.173,0,0,1-1.24,3A4.526,4.526,0,0,1,33.57,0h-6.3V-14.78h6.02a4.04,4.04,0,0,1,3.02,1.1,3.533,3.533,0,0,1,1.1,2.58,3.291,3.291,0,0,1-.55,1.84A2.936,2.936,0,0,1,35.39-8.08Zm-2.44-4.6h-3.4v3.82h3.32a2.2,2.2,0,0,0,1.6-.58,1.876,1.876,0,0,0,.6-1.4,1.7,1.7,0,0,0-.58-1.31A2.194,2.194,0,0,0,32.95-12.68ZM29.55-2.1h3.62a2.654,2.654,0,0,0,1.9-.68,2.2,2.2,0,0,0,.72-1.66,2.257,2.257,0,0,0-.71-1.7,2.731,2.731,0,0,0-1.97-.68H29.55ZM48.87-9.28v-1.5h2.12V0H48.87V-1.48A4.6,4.6,0,0,1,45.19.26a5.034,5.034,0,0,1-3.86-1.64,5.773,5.773,0,0,1-1.52-4.08,5.536,5.536,0,0,1,1.52-4,5.126,5.126,0,0,1,3.86-1.58A4.582,4.582,0,0,1,48.87-9.28ZM45.49-1.76a3.294,3.294,0,0,0,2.5-1.06,3.617,3.617,0,0,0,.98-2.58,3.592,3.592,0,0,0-.98-2.56,3.294,3.294,0,0,0-2.5-1.06,3.215,3.215,0,0,0-2.5,1.06,3.66,3.66,0,0,0-.96,2.58,3.66,3.66,0,0,0,.96,2.58A3.245,3.245,0,0,0,45.49-1.76ZM56.03,0h-2.2V-10.78h2.1v1.54a3.22,3.22,0,0,1,3.06-1.82,4.433,4.433,0,0,1,1.28.18l-.2,2.14a3.373,3.373,0,0,0-1.18-.2,2.642,2.642,0,0,0-2.08.88,3.712,3.712,0,0,0-.78,2.54Zm12.6-2.36.76,1.72a4.826,4.826,0,0,1-2.98.9A3.27,3.27,0,0,1,63.77-.8a4.6,4.6,0,0,1-.9-3.06V-8.9H61.01v-1.88h1.88V-14.6h2.18v3.82h3.72V-8.9H65.07v5.08q0,2.06,1.66,2.06A3.789,3.789,0,0,0,68.63-2.36Zm8.76,0,.76,1.72a4.826,4.826,0,0,1-2.98.9A3.27,3.27,0,0,1,72.53-.8a4.6,4.6,0,0,1-.9-3.06V-8.9H69.77v-1.88h1.88V-14.6h2.18v3.82h3.72V-8.9H73.83v5.08q0,2.06,1.66,2.06A3.789,3.789,0,0,0,77.39-2.36ZM84.15-3l2.76-7.78h2.42L84.87.98a6.9,6.9,0,0,1-1.68,2.75,3.405,3.405,0,0,1-2.34.85,3.3,3.3,0,0,1-1.84-.46l.32-1.9a3.464,3.464,0,0,0,1.34.34q1.3,0,2.12-1.84l.34-.8-4.68-10.7h2.54Z" transform="translate(-6790 -3934.22)" fill="#fff"/>
  </g>
</svg>
